<?xml version="1.0" encoding="utf-8"?>
<!-- Generator: Adobe Illustrator 22.1.0, SVG Export Plug-In . SVG Version: 6.00 Build 0)  -->
<svg version="1.1" id="Layer_1" xmlns="http://www.w3.org/2000/svg" xmlns:xlink="http://www.w3.org/1999/xlink" x="0px" y="0px"
	 viewBox="0 0 448 512" style="enable-background:new 0 0 448 512;" xml:space="preserve">
<g id="Layer_4">
	<path d="M372.5,509.5H90c-15.5,0-28-12.5-28-28V199c0-15.5,12.5-28,28-28h282.5c15.5,0,28,12.5,28,28v282.5
		C400.5,497,388,509.5,372.5,509.5z"/>
</g>
<g id="Layer_3">
	<path d="M400.5,114c0,5.5-2.2,10.5-5.9,14.1s-8.6,5.9-14.1,5.9H82c-11,0-20-9-20-20c0-5.5,2.2-10.5,5.9-14.1S76.5,94,82,94h110.5
		c-2.9,0-5.5-1.2-7.4-3.1c-1.9-1.9-3.1-4.5-3.1-7.4c0-5.8,4.7-10.5,10.5-10.5h75c2.9,0,5.5,1.2,7.4,3.1c1.9,1.9,3.1,4.5,3.1,7.4
		c0,5.8-4.7,10.5-10.5,10.5h113C391.5,94,400.5,103,400.5,114z"/>
</g>
</svg>
